<svg width="174" height="43" viewBox="0 0 174 43" fill="none" xmlns="http://www.w3.org/2000/svg">
<g clip-path="url(#clip0_5529_9638)">
<path d="M119.154 41.9402C118.232 42.0373 111.622 42.0131 111.023 41.916C111.023 41.6571 110.998 41.39 110.998 41.123C110.998 36.3655 110.998 31.608 110.998 26.8504C110.998 26.4297 110.974 26.009 110.901 25.5963C110.634 24.1238 109.736 23.2014 108.256 22.9586C106.459 22.6593 104.882 23.1933 103.522 24.3908C103.45 24.4555 103.393 24.5445 103.32 24.6416C103.32 25.3455 103.32 26.0575 103.32 26.7776C103.32 27.4977 103.32 28.2178 103.32 28.9298V31.0821C103.32 31.8264 103.32 32.5708 103.32 33.3152C103.32 34.0353 103.32 34.7554 103.32 35.4674C103.32 36.1875 103.32 36.9076 103.32 37.6196C103.32 38.3316 103.32 39.0598 103.32 39.7718C103.32 40.4839 103.336 41.1959 103.304 41.8998C102.681 42.005 96.03 42.0212 95.2129 41.9322C95.1886 41.8027 95.1643 41.6651 95.1481 41.5195C95.14 41.3739 95.1481 41.2201 95.1481 41.0745C95.1481 30.2001 95.1481 19.3258 95.1481 8.4514V7.60993C95.3261 7.57756 95.4637 7.53711 95.6093 7.53711C98.0852 7.53711 100.561 7.53711 103.045 7.53711C103.191 7.53711 103.336 7.56138 103.506 7.57756C103.587 8.49185 103.53 9.38187 103.547 10.2638C103.555 11.1538 103.547 12.0438 103.547 12.9419V15.6201C103.547 16.5101 103.547 17.4001 103.547 18.3629C103.717 18.2901 103.83 18.2658 103.919 18.2011C105.351 17.1897 106.953 16.68 108.684 16.4858C110.044 16.3321 111.403 16.3159 112.754 16.5101C113.418 16.6072 114.065 16.769 114.688 17.0117C116.363 17.6671 117.56 18.8241 118.289 20.4666C118.677 21.3323 118.912 22.2466 119.017 23.1852C119.106 23.9458 119.162 24.7144 119.162 25.4831C119.179 30.7584 119.162 36.0338 119.162 41.3091C119.162 41.5033 119.162 41.6975 119.154 41.9402Z" fill="#F30000"/>
<path d="M145.907 17.9668C145.996 18.525 146.02 40.7673 145.939 41.9163C145.866 41.9405 145.777 41.981 145.688 41.981C143.682 41.981 141.675 41.981 139.668 41.981C139.571 41.981 139.482 41.9486 139.337 41.9243C139.199 41.0991 139.07 40.2819 138.924 39.3918C138.803 39.4808 138.722 39.5213 138.665 39.586C137.524 40.9939 136.011 41.7949 134.28 42.1913C132.395 42.6202 130.501 42.6687 128.608 42.248C126.318 41.7382 124.627 40.4437 123.543 38.3562C122.896 37.1102 122.532 35.7751 122.321 34.3997C121.973 32.1342 121.925 29.8606 122.184 27.587C122.37 25.9769 122.734 24.4153 123.389 22.9347C124.935 19.4555 127.629 17.4166 131.335 16.6722C132.403 16.4537 133.487 16.3728 134.587 16.3647C136.521 16.3566 138.455 16.4537 140.372 16.6803C142.217 16.9068 144.029 17.3033 145.801 17.8777C145.842 17.8939 145.882 17.9263 145.923 17.9587L145.907 17.9668ZM137.605 23.2502C136.456 22.9104 135.348 22.8861 134.231 22.878C132.912 22.8699 131.974 23.4768 131.335 24.6014C131.003 25.1921 130.784 25.8232 130.655 26.4785C130.25 28.4608 130.202 30.4593 130.501 32.4578C130.623 33.2426 130.857 34.0032 131.286 34.6829C131.715 35.3625 132.306 35.8641 133.107 35.9693C134.895 36.204 136.416 35.6619 137.605 34.3349C137.605 30.6212 137.605 26.9559 137.605 23.2583V23.2502Z" fill="#F30000"/>
<path d="M60.1394 16.9873C60.2527 16.9468 60.3255 16.9064 60.3902 16.9064C62.9389 16.9064 65.4957 16.9064 68.0444 16.9064C68.1091 16.9064 68.1819 16.9549 68.2466 16.9711C68.3599 17.7478 68.4004 36.252 68.3114 41.487C68.3114 41.6326 68.2871 41.7701 68.2709 41.9077C68.1657 41.9401 68.101 41.9805 68.0282 41.9805C65.9973 41.9805 63.9665 41.9805 61.9356 41.9805C61.8628 41.9805 61.7981 41.9401 61.7091 41.9158C61.4906 41.0905 61.4097 40.2328 61.167 39.3347C60.997 39.4804 60.8757 39.5613 60.7786 39.6665C59.1361 41.3251 57.1053 42.1261 54.8317 42.4093C53.9659 42.5145 53.1083 42.5631 52.2344 42.5307C51.1179 42.4902 50.0175 42.3365 48.9576 41.9562C47.1856 41.3251 45.9153 40.1438 45.1548 38.4204C44.7745 37.5547 44.5399 36.6404 44.4266 35.7019C44.3376 34.9656 44.2809 34.2212 44.2809 33.4768C44.2728 28.2015 44.2809 22.9261 44.2809 17.6507C44.2809 17.4323 44.2809 17.2138 44.2809 16.9711C44.467 16.9387 44.6127 16.9064 44.7583 16.8983C47.3474 16.8173 51.8056 16.8659 52.4529 16.9873C52.4529 17.2462 52.4529 17.5132 52.4529 17.7802C52.4529 22.5377 52.4529 27.2953 52.4529 32.0447C52.4529 32.4412 52.4691 32.8376 52.5419 33.226C52.8089 34.7957 53.7636 35.7504 55.3414 35.9689C57.0891 36.2116 58.6102 35.6695 59.9371 34.5206C60.0099 34.4558 60.0666 34.3668 60.1475 34.2697C60.1475 31.3893 60.1475 28.4927 60.1475 25.5961C60.1475 22.7238 60.1475 19.8515 60.1475 16.9873H60.1394Z" fill="#F30000"/>
<path d="M173.867 41.9163C173.26 42.0134 166.698 42.0295 165.881 41.9486C165.703 41.7949 165.767 41.5845 165.767 41.3984C165.767 39.8369 165.767 38.2753 165.767 36.7137C165.767 33.4449 165.767 30.1762 165.767 26.9074C165.767 26.5109 165.768 26.1145 165.711 25.718C165.509 24.3668 164.78 23.4525 163.445 23.0641C161.673 22.5382 159.408 23.1936 158.105 24.6338C158.105 30.3542 158.105 36.115 158.105 41.9244C157.96 41.9486 157.838 41.9891 157.725 41.9891C155.249 41.9891 152.773 41.9891 150.297 41.9891C150.2 41.9891 150.111 41.9648 149.99 41.9486C149.974 41.8354 149.941 41.7464 149.941 41.6493C149.941 33.4288 149.941 25.2083 149.941 16.9958C150.516 16.8664 154.739 16.8178 156.471 16.923C156.519 17.0606 156.592 17.2143 156.625 17.3761C156.746 17.983 156.851 18.5898 156.964 19.2047C156.981 19.2937 157.021 19.3827 157.07 19.5364C157.199 19.4393 157.304 19.3827 157.377 19.3099C159.028 17.627 161.067 16.7855 163.373 16.5104C164.756 16.3405 166.14 16.3243 167.515 16.5266C168.3 16.6398 169.069 16.8502 169.789 17.1819C171.253 17.8454 172.297 18.9296 172.96 20.3779C173.357 21.2356 173.583 22.1498 173.721 23.0884C173.842 23.8975 173.875 24.7147 173.875 25.5319C173.875 30.7344 173.875 35.937 173.875 41.1395C173.875 41.4065 173.859 41.6735 173.85 41.9244L173.867 41.9163Z" fill="#F30000"/>
<path d="M91.625 33.914C92.0134 36.0663 92.3856 38.1376 92.7578 40.2089C92.5312 40.4921 92.2238 40.6053 91.9406 40.7429C90.8726 41.2769 89.7398 41.6329 88.5828 41.908C86.6733 42.3611 84.7315 42.5957 82.7653 42.5148C81.5031 42.4663 80.249 42.3045 79.0273 41.9727C75.3782 40.9775 73.0318 38.6554 71.9072 35.063C71.5188 33.825 71.3165 32.5547 71.2275 31.2683C71.0738 29.0351 71.179 26.8101 71.7696 24.6336C72.1984 23.0397 72.8862 21.5671 73.938 20.2806C75.4268 18.4682 77.3686 17.3921 79.6098 16.8338C80.7911 16.5345 81.9967 16.3888 83.2104 16.3726C85.2008 16.3403 87.1669 16.4778 89.1087 16.9633C90.1687 17.2303 91.1962 17.5701 92.2157 18.0475C92.1591 18.8161 91.9891 19.5605 91.8678 20.313C91.7383 21.0735 91.6412 21.8341 91.4956 22.5866C91.3499 23.3309 91.2933 24.0915 91.0668 24.8602C90.8402 24.7307 90.6622 24.6336 90.4923 24.5446C88.4614 23.4199 86.3011 23.0963 84.0276 23.5009C81.665 23.9216 80.16 25.4913 79.7636 27.8457C79.537 29.2131 79.6098 30.5643 80.0629 31.8751C80.7345 33.8331 82.1181 34.974 84.1165 35.3866C85.7833 35.7264 87.4177 35.5484 89.0197 34.9982C89.6508 34.7798 90.2577 34.4966 90.8726 34.2377C91.0991 34.1406 91.3176 34.0354 91.625 33.9059V33.914Z" fill="#F30000"/>
<path d="M39.104 13.1278C38.5457 16.8497 37.6233 20.4745 36.0698 23.9132C35.7705 24.5847 35.3983 25.232 35.0423 25.8793C34.7996 26.3081 34.5649 26.7693 34.1685 27.0849C34.1199 27.1577 34.039 27.1739 33.9904 27.2386V27.2224C33.8367 27.3195 33.6587 27.4004 33.505 27.5056C32.2994 28.3309 30.9644 28.8406 29.4999 28.8811C27.8251 28.9296 26.1421 28.8811 24.4673 28.8811C24.5158 28.8244 24.5563 28.7597 24.6129 28.7192C26.482 27.4247 27.906 25.7256 29.0306 23.7756C29.4109 23.1122 29.7265 22.4082 30.0663 21.7205C30.1229 21.6234 30.1957 21.5263 30.2362 21.4211C30.2767 21.3078 30.2767 21.1865 30.1229 21.1541C30.0097 21.1946 29.8802 21.1946 29.7993 21.2674C29.5242 21.5182 29.2734 21.7852 29.0064 22.0441C25.8347 25.1025 22.0642 26.7127 17.6384 26.7369C15.907 26.745 14.1755 26.7369 12.4359 26.7369C12.2903 26.7369 12.1365 26.7288 11.9909 26.7046C11.8695 26.6884 11.7724 26.5266 11.8291 26.4214C11.9262 26.2515 12.0233 26.0816 12.1446 25.9197C14.1674 23.1607 16.3924 20.5716 18.7793 18.12C19.0058 17.8934 19.2243 17.6588 19.4427 17.4161C19.467 17.3837 19.4266 17.3028 19.4185 17.2461C19.4751 17.3271 19.5317 17.3271 19.5884 17.2623C19.9687 16.9549 20.3651 16.6555 20.6079 16.2024C20.7211 16.2186 20.7697 16.17 20.7616 16.0568C20.8749 16.0729 20.9234 16.0244 20.9153 15.9111C21.0286 15.9273 21.0852 15.8788 21.0771 15.7655C21.1904 15.7817 21.2471 15.7331 21.239 15.6198H21.2309C21.3441 15.636 21.3927 15.5875 21.3927 15.4742H21.3846C21.684 15.4418 21.8215 15.2153 21.9752 14.9968L21.951 15.0211C22.0076 14.9645 22.0642 14.9159 22.129 14.8593L22.1128 14.8755C22.1694 14.8188 22.2261 14.7703 22.2827 14.7136C24.2165 13.0145 26.1745 11.3478 28.2701 9.84283C28.9174 9.37355 29.597 8.97709 30.3495 8.71818C32.259 8.05471 34.1765 7.96571 36.0698 8.791C37.2107 9.28455 38.1573 10.0208 38.8046 11.0969C38.4486 11.5258 38.036 11.9061 37.7852 12.4724C38.2544 12.699 38.6994 12.9093 39.1364 13.1197L39.104 13.1278ZM35.4387 12.076C35.3012 11.7361 35.0585 11.5015 34.7267 11.3559C33.9257 10.9756 33.1894 11.0565 32.6069 11.6067C32.0729 12.1164 31.8949 12.8932 32.1538 13.5809C32.5341 14.568 33.6264 15.0292 34.5973 14.6085C35.6006 14.1796 35.9566 13.0873 35.4387 12.0679V12.076Z" fill="#F20000"/>
<path d="M16.6516 0.700195C20.3168 0.700195 23.9982 0.700195 27.7282 0.700195C28.7153 2.69868 29.6215 4.72954 30.5682 6.77657C30.4468 6.8413 30.3497 6.91412 30.2445 6.95458C29.0794 7.32676 28.0195 7.91741 27.0324 8.63751C26.1747 9.26861 25.3494 9.94017 24.4999 10.5875C24.3057 10.7331 24.1115 10.8787 23.8688 11.0648C23.2539 9.77835 22.825 8.4676 22.1939 7.2054C21.9674 7.41576 21.9027 7.67468 21.7975 7.91741C20.867 9.99681 20.0417 12.1167 19.2892 14.2689C19.0222 15.0213 18.6258 15.6039 17.9947 16.0975C16.6435 17.1412 15.3327 18.2416 14.0301 19.3501C13.4718 19.8274 12.8407 20.054 12.1287 20.0621C10.8179 20.0702 9.50717 20.0621 8.18833 20.0621C8.13978 20.0621 8.09933 20.0378 8.05078 20.0216C8.1236 19.4633 9.22398 16.858 12.1368 10.2638C14.3699 5.24736 16.1904 1.37175 16.6516 0.700195Z" fill="#F30000"/>
<path d="M43.6195 41.9242C43.0369 42.0133 34.5575 42.0213 33.8698 41.9242C32.7208 38.6878 31.5638 35.4352 30.3906 32.1503C30.5363 32.0532 30.6495 31.9723 30.7709 31.8994C31.4344 31.5192 32.114 31.1632 32.7613 30.7505C34.4442 29.6744 35.7145 28.2018 36.6774 26.4623C36.912 26.0334 37.1467 25.6046 37.3651 25.2001C37.4379 25.1839 37.4622 25.1758 37.4865 25.1758C37.5027 25.1758 37.5188 25.2081 37.5269 25.2243C39.3555 29.82 41.0951 34.4481 42.7376 39.1086C43.0531 39.9905 43.3444 40.8886 43.6438 41.7786C43.6599 41.8191 43.6276 41.8676 43.6195 41.9162V41.9242Z" fill="#F30000"/>
<path d="M19.4188 17.2628C19.4269 17.3194 19.4674 17.4084 19.4431 17.4327C19.2327 17.6754 19.0062 17.902 18.7797 18.1366C16.3928 20.5882 14.1678 23.1773 12.145 25.9364C12.0317 26.0982 11.9265 26.26 11.8294 26.438C11.7728 26.5432 11.8699 26.705 11.9913 26.7212C12.1369 26.7374 12.2825 26.7536 12.4363 26.7536C14.1678 26.7536 15.8992 26.7536 17.6388 26.7536C22.0646 26.7293 25.835 25.1273 29.0067 22.0608C29.2737 21.8019 29.5246 21.5268 29.7997 21.284C29.8806 21.2112 30.0181 21.2031 30.1233 21.1708C30.0343 21.3568 29.9453 21.5349 29.8563 21.7209C29.2414 22.6514 28.6022 23.5657 27.8659 24.3991C25.39 27.1986 22.2993 28.8653 18.6259 29.4964C17.477 29.6906 16.32 29.7877 15.1549 29.7877C11.9589 29.7877 8.76294 29.7877 5.56697 29.7877C5.34851 29.7877 5.13005 29.7715 4.86305 29.7634C4.88732 29.6097 4.87114 29.4722 4.92778 29.3832C5.01678 29.2375 5.16242 29.1243 5.28378 29.0029C5.87443 28.4042 6.46508 27.8054 7.04763 27.1986C7.14473 27.1015 7.29036 27.0206 7.29036 26.8102C6.93436 26.7617 6.57835 26.7212 6.22235 26.6646C3.57657 26.2358 1.837 24.7389 0.963166 22.2145C0.930802 22.1255 0.922711 22.0284 0.898438 21.907C1.00362 21.8585 1.08453 21.7938 1.17353 21.7857C1.39199 21.7695 1.61854 21.7695 1.84509 21.7695C5.21097 21.7695 8.58493 21.7695 11.9508 21.7695C12.3473 21.7695 12.7437 21.7695 13.1321 21.6967C13.8279 21.5753 14.4348 21.2517 14.9769 20.7905C16.231 19.7386 17.4851 18.6868 18.7392 17.6431C18.9253 17.4812 19.1276 17.3437 19.3298 17.198C19.3379 17.19 19.3946 17.2466 19.435 17.2709L19.4188 17.2628Z" fill="#009C5C"/>
<path d="M13.6725 31.6084C12.564 35.0714 11.4636 38.5101 10.3714 41.9245C9.74835 42.0135 1.19611 42.0216 0.492188 41.9326C0.50837 41.795 0.50837 41.6494 0.548825 41.5199C1.60875 38.2511 2.72532 34.9985 3.92279 31.7702C3.94706 31.7055 3.98752 31.6408 4.01179 31.576C4.04416 31.5598 4.06034 31.5518 4.08461 31.5356C4.10889 31.5275 4.13316 31.5113 4.15743 31.5113C7.15112 31.5113 10.1529 31.4951 13.1466 31.4951C13.268 31.4951 13.3893 31.5113 13.5107 31.5194C13.535 31.5194 13.5511 31.5437 13.6644 31.6003L13.6725 31.6084Z" fill="#F30000"/>
<path d="M34.4183 26.8509C33.7063 27.7166 32.258 29.0435 32.258 29.0435C31.3923 29.707 30.4294 30.241 29.3857 30.6537C27.7836 31.2928 26.1169 31.6327 24.4016 31.7055C24.2317 31.7055 24.0537 31.7217 23.8838 31.7379C23.7381 31.9806 23.8919 32.1748 23.9647 32.369C24.6605 34.327 25.3644 36.2769 26.0603 38.235C26.4486 39.3273 26.8451 40.4196 27.2335 41.5199C27.282 41.6494 27.3063 41.7869 27.3467 41.9407C27.2335 41.9811 27.1606 42.0216 27.0959 42.0216C26.4567 42.0216 25.8094 42.0216 25.1298 42.0216C24.701 41.0911 24.4259 40.1202 24.0699 39.1735C23.7138 38.2269 23.3821 37.264 23.0423 36.3093C22.7025 35.3546 22.3626 34.3998 22.0228 33.4451C21.6911 32.4984 21.327 31.5599 21.0195 30.5727C21.2137 30.4757 21.3351 30.3947 21.4645 30.3381C22.4112 29.974 23.3255 29.529 24.1912 29.0031C24.2721 28.9545 24.3692 28.9222 24.4582 28.8817C26.1331 28.8817 27.816 28.9222 29.4909 28.8817C30.9553 28.8413 32.2904 28.3315 33.4959 27.5062L34.4102 26.8428L34.4183 26.8509Z" fill="#009C5D"/>
<path d="M26.3753 33.2505C27.1035 33.1049 27.775 32.9673 28.4304 32.8379C28.7217 33.3153 31.4241 40.7833 31.7396 41.9565C31.0034 42.086 30.2833 42.005 29.5065 42.005C29.102 41.0422 28.7945 40.0551 28.4385 39.0842C28.0906 38.1294 27.7588 37.1747 27.419 36.2199C27.0711 35.249 26.6989 34.2781 26.3672 33.2505H26.3753Z" fill="#009D5E"/>
<path d="M39.1051 13.1282C38.6682 12.9179 38.2232 12.7075 37.7539 12.4809C38.0047 11.9065 38.4174 11.5262 38.7734 11.1055C39.809 11.1055 40.8366 11.1055 41.8722 11.1055C42.0422 11.1055 42.2202 11.1055 42.3901 11.1297C42.471 11.1459 42.5843 11.2187 42.6004 11.2916C42.6166 11.3644 42.5681 11.4938 42.5034 11.5343C42.3415 11.6395 42.1554 11.7123 41.9774 11.8013C41.0227 12.2463 40.0679 12.6994 39.1051 13.1444V13.1282Z" fill="#009B5C"/>
<path d="M20.616 16.2185C20.3814 16.6716 19.9849 16.9629 19.5965 17.2784C19.5318 17.2218 19.4671 17.1732 19.4023 17.1166C19.7422 16.8172 20.082 16.5098 20.4218 16.2185C20.4542 16.1861 20.5432 16.2185 20.6079 16.2185H20.616Z" fill="#009666"/>
<path d="M29.8557 21.7045C29.9447 21.5184 30.0338 21.3404 30.1228 21.1543C30.2846 21.1948 30.2846 21.308 30.236 21.4213C30.1956 21.5265 30.1228 21.6236 30.0661 21.7207C29.9933 21.7126 29.9205 21.7045 29.8477 21.6964L29.8557 21.7045Z" fill="#DCBBBB"/>
<path d="M21.9539 15.0137C21.8002 15.224 21.6546 15.4587 21.3633 15.4991C21.4927 15.2564 21.7031 15.1027 21.9539 15.0137Z" fill="#009666"/>
<path d="M22.1038 14.8672C22.0472 14.9238 21.9905 14.9724 21.9258 15.029C21.9824 14.9724 22.0391 14.9238 22.1038 14.8672Z" fill="#009666"/>
<path d="M21.365 15.4824C21.365 15.5957 21.3164 15.6443 21.2031 15.6362C21.2598 15.5876 21.3083 15.531 21.365 15.4824Z" fill="#009666"/>
<path d="M21.2126 15.6279C21.2126 15.7412 21.1641 15.7898 21.0508 15.7817C21.0508 15.6684 21.1074 15.6279 21.2126 15.6279Z" fill="#009666"/>
<path d="M21.0588 15.7735C21.0669 15.8867 21.0103 15.9353 20.897 15.9272C20.8808 15.8058 20.9455 15.7654 21.0588 15.7735Z" fill="#009666"/>
<path d="M20.9189 15.9194C20.927 16.0327 20.8703 16.0813 20.7651 16.0732C20.7247 15.9275 20.7975 15.8952 20.9189 15.9194Z" fill="#009666"/>
<path d="M20.762 16.0729C20.7701 16.1862 20.7215 16.2348 20.6082 16.2267C20.5516 16.0649 20.6325 16.0406 20.762 16.0729Z" fill="#009666"/>
<path d="M19.4032 17.1084C19.4679 17.165 19.5327 17.2136 19.5974 17.2702C19.5327 17.3431 19.476 17.335 19.4275 17.2622C19.4113 17.2298 19.387 17.1974 19.3789 17.165C19.3789 17.1489 19.3951 17.1327 19.4113 17.1084H19.4032Z" fill="#009C5C"/>
<path d="M35.4504 12.0765C35.9682 13.096 35.6122 14.1802 34.6089 14.6171C33.638 15.0378 32.5457 14.5766 32.1654 13.5895C31.8984 12.9018 32.0764 12.117 32.6185 11.6153C33.2011 11.0651 33.9373 10.9842 34.7384 11.3645C34.5684 11.4049 34.3985 11.4211 34.2367 11.4859C33.8726 11.6315 33.6703 12.0037 33.7189 12.3759C33.7755 12.74 34.083 13.0555 34.4471 13.1041C34.8112 13.1607 35.1915 12.9503 35.329 12.5862C35.3937 12.4325 35.4018 12.2545 35.4423 12.0846L35.4504 12.0765Z" fill="#00985B"/>
<path d="M35.4435 12.0765C35.4111 12.2465 35.3949 12.4245 35.3302 12.5782C35.1846 12.9342 34.8124 13.1446 34.4483 13.096C34.0761 13.0394 33.7686 12.7319 33.7201 12.3678C33.6635 11.9956 33.8738 11.6315 34.2379 11.4778C34.3916 11.4131 34.5696 11.3969 34.7396 11.3564C35.0713 11.5021 35.314 11.7367 35.4516 12.0765H35.4435Z" fill="#EEF7F4"/>
</g>
<defs>
<clipPath id="clip0_5529_9638">
<rect width="173.391" height="41.8469" fill="white" transform="translate(0.5 0.700195)"/>
</clipPath>
</defs>
</svg>
