<svg width="91" height="88" viewBox="0 0 91 88" fill="none" xmlns="http://www.w3.org/2000/svg">
<g clip-path="url(#clip0_5529_9665)">
<path fill-rule="evenodd" clip-rule="evenodd" d="M46.4049 0.0458965C45.861 0.043972 45.3187 0.0468559 44.778 0.0534C29.1984 0.258865 14.944 2.77091 4.16161 12.1056C2.33652 13.9026 1.09632 15.7514 0.279211 18.1793C-0.585197 20.9264 0.768023 21.7988 3.00254 21.8242C3.00254 21.8242 58.9328 21.7855 87.3214 21.7932C89.6278 21.6854 90.1344 21.4162 89.9806 19.734C89.719 18.0275 89.2232 16.9157 88.5183 15.7704C81.4284 4.29615 63.265 0.100893 46.4031 0.0455589L46.4049 0.0458965Z" fill="#F28A21"/>
<path fill-rule="evenodd" clip-rule="evenodd" d="M44.7758 87.4208C29.1967 87.4139 13.5392 86.8789 4.1176 78.6141C2.23255 77.0267 0.737339 74.5151 0.209456 72.9749C-0.30611 71.1576 0.766305 71.4168 3.00082 71.3981C3.00082 71.3981 58.9311 71.4266 87.3197 71.4209C89.5326 71.2621 90.1432 71.9205 90.015 72.9545C89.8791 73.7173 89.3732 74.5569 88.5662 75.8971C82.4651 86.1372 62.0782 87.1635 44.7751 87.4209L44.7758 87.4208Z" fill="#F28A21"/>
<path fill-rule="evenodd" clip-rule="evenodd" d="M6.99271 41.9648H11.8467C13.7511 41.9348 14.5578 41.4637 15.3941 40.734C17.2212 39.0916 17.2871 36.6381 16.3988 35.0876C15.8423 34.2628 15.2121 33.554 14.3972 33.2394C15.7041 32.3717 16.1323 31.5134 16.2832 30.7408C16.3841 30.1489 16.364 29.2891 16.1061 28.5327C15.4859 26.7525 13.7131 25.8353 11.5424 25.7449H6.97491C5.70787 25.6987 4.33622 26.1869 4.32424 27.8341V39.9127C4.31799 41.948 5.98988 41.9422 6.99271 41.9648ZM8.99214 28.9759L10.1767 28.9908C10.9673 29.0477 11.2447 29.2833 11.5833 29.8155C11.8891 30.4838 11.8032 31.1065 11.379 31.6242C10.9717 32.0563 10.5678 32.1068 10.1783 32.1126L8.99214 32.0972V28.9759ZM8.99214 35.1044L10.4127 35.102C10.8848 35.1396 11.3252 35.2363 11.7472 35.7516C12.2824 36.4604 12.1881 37.5351 11.5675 38.1694C11.0818 38.6294 10.6519 38.6629 10.1357 38.6544L8.99214 38.6443V35.1044Z" fill="#EC242D"/>
<path fill-rule="evenodd" clip-rule="evenodd" d="M29.5888 40.4396C30.7114 39.4566 30.9825 38.474 31.0009 37.4665L31.0082 27.492C30.9727 25.0216 26.1701 25.1329 26.2235 27.4891L26.2412 36.7876C26.1886 38.68 23.2044 38.557 23.1194 36.7794L23.11 27.53C23.1191 25.101 18.2768 25.0635 18.2821 27.5247L18.2696 37.4641C18.2364 41.9281 25.3783 43.1519 28.8586 40.9559" fill="#EC242D"/>
<path fill-rule="evenodd" clip-rule="evenodd" d="M45.3543 41.2427C46.1982 40.5382 46.5459 39.7467 46.0353 39.0096L42.8722 34.9616C43.8711 34.5866 44.4999 33.6773 44.8866 32.8196C45.6523 31.0908 45.4476 29.028 44.3967 27.7318C43.5217 26.6433 42.3803 25.8056 40.7455 25.7427H34.73C33.7286 25.7225 32.999 26.5639 33.0241 27.598V40.2781C33.0135 42.5367 37.6051 42.6846 37.6848 40.2435L37.6923 35.7162L41.8726 41.277C42.9383 42.5978 44.4744 41.8628 45.3543 41.2427ZM40.1418 32.14C39.737 32.5817 39.3378 32.6784 38.947 32.715L37.6887 32.767V28.9937L38.9735 29.0077C39.7436 29.0805 40.0139 29.3181 40.3567 29.8117C40.7978 30.671 40.6736 31.4746 40.1418 32.14Z" fill="#EC242D"/>
<path fill-rule="evenodd" clip-rule="evenodd" d="M61.6491 33.5536C61.5774 32.678 61.1622 32.3555 60.7485 32.2319C60.5416 32.1646 60.2346 32.1367 59.9247 32.1367L56.2424 32.115C55.7319 32.0996 55.2002 32.1535 54.6723 32.779C54.0725 33.6306 54.0716 34.52 54.5323 35.3316C54.9383 35.8727 55.3103 36.0228 55.8906 36.0807C56.2752 36.119 56.3658 36.1033 56.6634 36.0783C56.8058 36.0725 56.8714 36.0833 56.9432 36.1976C57.2972 37.4606 56.1901 37.9137 54.8833 37.936C53.4652 37.9485 52.5906 37.3854 52.0148 36.6584C51.1999 35.6298 50.9285 34.3561 51.2135 32.9175C51.635 31.148 52.2233 30.385 53.7098 29.9287C54.6962 29.6259 55.8353 29.5982 57.019 29.9944C57.3938 30.1282 57.977 30.3534 58.5544 30.592C59.2333 30.8201 59.892 30.7715 60.6267 30.0488C61.2031 29.406 61.4591 28.6082 61.0785 27.8407C60.9919 27.6824 60.8736 27.529 60.6854 27.3812C58.8908 25.8927 56.9068 25.5789 54.9168 25.5817C53.1329 25.6534 51.6815 25.8674 50.1187 26.8775C48.1775 28.1322 46.8319 29.9409 46.4727 32.6885C46.3843 33.3722 46.3734 34.0574 46.4272 34.7027C46.5815 36.3266 47.2053 37.992 48.1069 39.1977C50.2463 41.9858 53.5214 42.1864 56.1023 42.0481C59.6286 41.8795 61.692 39.6002 61.7064 38.6419V34.2177C61.6997 33.9531 61.6843 33.7629 61.6578 33.5598" fill="#EC242D"/>
<path fill-rule="evenodd" clip-rule="evenodd" d="M65.6147 41.9649H72.0137C74.1825 41.953 73.9161 38.1179 72.0132 38.1512L68.404 38.1281L68.4155 35.6054L71.2756 35.6198C73.5298 35.5977 73.5139 31.7947 71.2794 31.8326L68.3785 31.833V29.5923L71.6841 29.6C73.8859 29.6296 73.9707 25.7337 71.7024 25.7449H65.6147C64.5587 25.7672 63.5504 26.3971 63.5312 27.6498L63.538 39.9406C63.5498 41.3225 64.8491 41.9945 65.6147 41.9649Z" fill="#EC242D"/>
<path fill-rule="evenodd" clip-rule="evenodd" d="M87.1941 41.2427C88.038 40.5382 88.3858 39.7467 87.8751 39.0096L84.712 34.9616C85.711 34.5866 86.3398 33.6773 86.7265 32.8196C87.4921 31.0908 87.2874 29.028 86.2365 27.7318C85.3615 26.6433 84.2201 25.8056 82.5853 25.7427H76.5698C75.5684 25.7225 74.8389 26.5639 74.8639 27.598V40.2781C74.8534 42.5367 79.445 42.6846 79.5246 40.2435L79.5321 35.7162L83.7124 41.277C84.7781 42.5978 86.3142 41.8628 87.1941 41.2427ZM81.9817 32.14C81.5768 32.5817 81.1776 32.6784 80.7869 32.715L79.5285 32.767V28.9937L80.8134 29.0077C81.5834 29.0805 81.8537 29.3181 82.1965 29.8117C82.6377 30.671 82.5134 31.4746 81.9817 32.14Z" fill="#EC242D"/>
<path fill-rule="evenodd" clip-rule="evenodd" d="M87.2477 56.17C87.1384 54.8356 86.5057 54.3441 85.8751 54.1559C85.5598 54.0532 85.092 54.0107 84.6197 54.0107L79.0079 53.9777C78.2299 53.9542 77.4196 54.0364 76.6152 54.9896C75.701 56.2874 75.6997 57.6426 76.4018 58.8795C77.0205 59.7042 77.5874 59.9329 78.4719 60.021C79.058 60.0794 79.1961 60.0555 79.6496 60.0172C79.8667 60.0084 79.9666 60.0248 80.076 60.199C80.6156 62.1238 78.9284 62.8142 76.9367 62.8483C74.7756 62.8674 73.4426 62.0091 72.5651 60.9014C71.3232 59.3337 70.9095 57.3927 71.3439 55.2005C71.9863 52.5039 72.8829 51.3412 75.1483 50.6458C76.6517 50.1844 78.3875 50.1421 80.1914 50.746C80.7626 50.9498 81.6514 51.293 82.5313 51.6566C83.566 52.0042 84.5699 51.9302 85.6896 50.8288C86.5681 49.8492 86.9582 48.6334 86.3782 47.4638C86.2462 47.2226 86.0658 46.9887 85.7791 46.7636C83.0441 44.4952 80.0205 44.017 76.9877 44.0212C74.2691 44.1304 72.0573 44.4565 69.6755 45.9959C66.7172 47.908 64.6666 50.6643 64.1191 54.8517C63.9844 55.8937 63.9679 56.9378 64.0498 57.9211C64.285 60.396 65.2356 62.9339 66.6096 64.7714C69.8702 69.0204 74.8616 69.3261 78.7946 69.1153C84.1687 68.8584 87.3136 65.3849 87.3352 63.9245V57.1825C87.325 56.7792 87.3015 56.4893 87.2611 56.1799" fill="#EC242D"/>
<path fill-rule="evenodd" clip-rule="evenodd" d="M25.128 63.3476L18.8772 56.5093L25.1843 49.6942C27.8386 46.3171 22.6811 42.6634 19.6885 45.6151L11.5135 54.4512L11.5331 47.2867C11.4759 43.487 4.31131 43.792 4.29688 47.3824L4.3142 66.1901C4.4114 70.0164 11.6524 69.4506 11.5542 66.134L11.5028 58.7588L19.6315 67.7098C20.594 68.6885 21.5977 68.9154 22.5916 68.8103C23.0609 68.7551 23.5772 68.5974 24.0732 68.3164C24.3153 68.1795 24.5478 68.016 24.7585 67.8343C25.9543 66.7633 26.2819 65.4835 25.7919 64.3132C25.6549 63.9968 25.4398 63.6657 25.1271 63.3476" fill="#EC242D"/>
<path fill-rule="evenodd" clip-rule="evenodd" d="M34.8289 45.4864C32.9987 43.9129 28.5622 44.3807 28.4102 47.3144V66.124C28.5144 70.1425 35.8104 69.5766 35.6622 66.124V47.3144C35.6517 46.7059 35.5019 46.0948 34.8289 45.4864Z" fill="#EC242D"/>
<path fill-rule="evenodd" clip-rule="evenodd" d="M60.7169 45.4547C58.9373 43.8996 54.4618 44.1327 54.3045 47.3143V55.4161L46.4697 46.0527C46.1418 45.6354 45.7283 45.3326 45.3217 45.0776C43.6117 43.889 39.5978 44.6119 39.5742 47.3146L39.6291 66.1218C39.6841 69.8008 46.7758 69.7982 46.8259 66.0923V57.4559L54.7184 67.4203C57.0294 70.3327 61.5619 68.4335 61.5566 66.1244L61.5542 47.3152C61.5461 46.6965 61.3974 46.075 60.717 45.4555" fill="#EC242D"/>
</g>
<defs>
<clipPath id="clip0_5529_9665">
<rect width="90.0197" height="87.3752" fill="white" transform="translate(0.015625 0.0458984)"/>
</clipPath>
</defs>
</svg>
