<svg width="100" height="92" viewBox="0 0 100 92" fill="none" xmlns="http://www.w3.org/2000/svg">
<g clip-path="url(#clip0_5529_9686)">
<path d="M49.9933 87.5712C49.2137 87.5712 48.4737 87.3334 47.8527 86.8841L45.461 85.1333H22.7141L20.6131 68.4051L5.46387 57.3784C5.03443 54.9075 4.81641 52.3507 4.81641 49.7542C4.81641 24.8402 25.0793 4.58398 49.9933 4.58398C74.9007 4.58398 95.1635 24.8468 95.1635 49.7542C95.1635 52.2978 94.9455 54.8613 94.5161 57.385L79.3734 68.4117L77.2659 85.1399H54.5255L52.1206 86.9105C51.5326 87.3334 50.7663 87.5712 49.9933 87.5712Z" fill="#FFCD00"/>
<path d="M45.6733 89.903C46.9418 90.8214 48.4481 91.2904 49.9875 91.2904C51.5269 91.2904 53.0464 90.8147 54.3083 89.903L55.742 88.8591H80.5371L82.856 70.466L97.893 59.5186C98.547 56.3144 98.8774 53.0374 98.8774 49.7473C98.8774 22.7521 76.976 0.857422 49.9875 0.857422C22.999 0.857422 1.09766 22.7521 1.09766 49.7473C1.09766 53.0374 1.41478 56.3144 2.08867 59.5186L17.1256 70.466L19.4314 88.8591H44.2463L45.6733 89.903ZM45.0258 80.3034H26.9829L25.1726 65.729L10.3074 54.927C9.8714 53.229 9.64677 51.5047 9.64677 49.7473C9.64677 46.8271 10.2612 43.9399 11.4636 41.2774L37.765 67.8563L12.197 36.3092C13.2012 32.213 15.4277 28.5198 18.5857 25.7252L41.5111 65.2731L21.1887 21.9792C23.8116 18.471 27.4717 15.901 31.6604 14.6126L45.6733 63.7205L35.4329 12.5844C38.5645 10.8204 42.0528 9.90204 45.6403 9.90204C46.4 9.90204 47.1532 9.93508 47.8998 10.0144L49.9875 63.1986L52.0686 10.021C52.8284 9.94168 53.575 9.90865 54.348 9.90865C57.909 9.90865 61.4304 10.827 64.5488 12.591L54.3083 63.7271L68.3344 14.6193C72.5033 15.9076 76.1634 18.4842 78.7929 21.9858L58.4838 65.2731L81.4091 25.7252C84.5473 28.5198 86.7804 32.213 87.7979 36.3092L62.2298 67.8629L88.5312 41.284C89.7204 43.9466 90.3216 46.8337 90.3216 49.7539C90.3216 51.5113 90.1102 53.2356 89.661 54.9336L74.8222 65.7356L72.9988 80.31H54.9558L52.2999 82.2458C51.6194 82.7281 50.8134 83.0122 49.9875 83.0122C49.1617 83.0122 48.3556 82.7347 47.6884 82.2458L45.0258 80.3034Z" fill="#DA291C"/>
</g>
<defs>
<clipPath id="clip0_5529_9686">
<rect width="99.101" height="91.8336" fill="white" transform="translate(0.4375 0.157227)"/>
</clipPath>
</defs>
</svg>
