<svg width="167" height="55" viewBox="0 0 167 55" fill="none" xmlns="http://www.w3.org/2000/svg">
<g clip-path="url(#clip0_5529_9680)">
<path d="M17.0931 19.9407L17.9853 1.2041H6.38644L6.23774 35.1829L-0.0078125 53.9938H11.7397L17.6879 36.0751L40.4396 1.2041H27.2793L17.0931 19.9407Z" fill="#FF0000"/>
<path d="M16.2852 53.9938H28.2557L32.7169 44.4769H42.2339L40.5239 53.9938H51.8252L59.4835 1.2041H43.6465L16.2852 53.9938ZM47.8102 12.5056L43.944 34.5137H37.4754L47.8102 12.5056Z" fill="#FF0000"/>
<path d="M81.7664 31.3909L83.2535 1.2041H70.465L52.918 53.9938H63.699L74.1826 22.4687L72.5468 53.9938H85.0379L102.585 1.2041H91.804L81.7664 31.3909Z" fill="#FF0000"/>
<path d="M118.55 9.60674C120.409 9.60674 121.153 11.4656 121.302 17.7111L131.785 14.1422C131.859 6.26092 127.993 0.164062 119.74 0.164062C109.182 0.164062 102.267 9.45804 96.5422 26.0385C90.8171 42.6189 94.2372 54.887 103.16 54.887C106.728 54.887 108.959 53.4742 111.487 50.2771L110.818 53.9947H119.22L129.183 24.1053H113.123L109.851 34.0684H115.502L115.278 34.7376C113.643 39.7192 110.669 45.3699 107.546 45.3699C104.2 45.3699 103.903 40.8345 108.364 27.4511C112.825 14.0679 115.204 9.60674 118.55 9.60674Z" fill="#FF0000"/>
<path d="M140.188 54.9622C149.407 54.9622 157.14 46.5604 162.791 29.6082C168.069 13.8456 167.549 0.239258 153.421 0.239258C144.202 0.239258 136.544 8.64101 130.819 25.5932C125.466 41.4301 126.06 54.9622 140.188 54.9622ZM141.302 45.5195C136.842 45.5195 139.741 36.0768 142.641 27.0802C147.102 13.2508 149.704 9.68193 152.307 9.68193C156.767 9.68193 153.868 19.1246 150.969 28.1212C146.507 41.9506 143.905 45.5195 141.302 45.5195Z" fill="#FF0000"/>
</g>
<defs>
<clipPath id="clip0_5529_9680">
<rect width="166.584" height="54.7973" fill="white" transform="translate(-0.0078125 0.164062)"/>
</clipPath>
</defs>
</svg>
